<?xml version="1.0" encoding="utf-8" standalone="yes"?>
<!DOCTYPE svg PUBLIC "-//W3C//DTD SVG 1.1//EN" "http://www.w3.org/Graphics/SVG/1.1/DTD/svg11.dtd">
<svg style="fill:none;stroke:none;fill-rule:evenodd;clip-rule:evenodd;stroke-linecap:round;stroke-linejoin:round;stroke-miterlimit:1.5;" version="1.1" xmlns="http://www.w3.org/2000/svg" xmlns:xlink="http://www.w3.org/1999/xlink" width="828" height="612" viewBox="0 0 828 612"><style class="text-font-style fontImports" data-font-family="Roboto">@import url(https://fonts.googleapis.com/css2?family=Roboto:wght@400;700&amp;amp;display=block);</style><g id="items" style="isolation: isolate"><g id="blend" style="mix-blend-mode: normal"><g id="g-root-cp_0_g-0_4nkxeycu91xp-fill" data-item-order="-393109" transform="translate(13.999969482421875, 223.51300048828125)"></g><g id="g-root-cp_0_g-0_4nkxeycu91xp-stroke" data-item-order="-393109" transform="translate(13.999969482421875, 223.51300048828125)"><g id="cp_0_g-0_4nkxeycu91xp-stroke" fill="none" stroke-linecap="round" stroke-linejoin="round" stroke-miterlimit="4" stroke="#f4f4f4" stroke-width="2" stroke-opacity="1"><g><path d="M 652.000031 130.5L 705.468431 130.5L 705.468431 154.5L 777.474931 82.5026L 705.468431 10L 705.468431 34.5L 665.066731 34.5L 652.000031 130.5ZM 545.113531 34.5L 509.103331 34.5L 496.036631 130.5L 532.046931 130.5L 545.113531 34.5ZM 389.103331 34.5L 353.133731 34.5L 340.067031 130.5L 376.036631 130.5L 389.103331 34.5ZM 233.133731 34.5L 197.598331 34.5L 184.531631 130.5L 220.067031 130.5L 233.133731 34.5ZM 77.598331 34.5L 10.000031 34.5L 10.000031 130.5L 64.531631 130.5L 77.598331 34.5Z"></path></g></g></g><g id="g-root-cp_1_g-1_1qd8h0qcu93bi-fill" data-item-order="-393105" transform="translate(38, 212)"></g><g id="g-root-cp_1_g-1_1qd8h0qcu93bi-stroke" data-item-order="-393105" transform="translate(38, 212)"><g id="cp_1_g-1_1qd8h0qcu93bi-stroke" fill="none" stroke-linecap="round" stroke-linejoin="round" stroke-miterlimit="4" stroke="#4f91fc" stroke-width="2" stroke-opacity="1"><g><path d="M 58.5 10L 178.5 10L 154 190L 34 190L 58.5 10Z"></path></g></g><g id="cp_1_g-1_1qd8h0qcu93bi-stroke" fill="none" stroke-linecap="round" stroke-linejoin="round" stroke-miterlimit="4" stroke="#4f91fc" stroke-width="2" stroke-opacity="1"><g><path d="M 173.595581 46L 178.500081 10L 202.000081 46L 173.595581 46Z"></path></g></g><g id="cp_1_g-1_1qd8h0qcu93bi-stroke" fill="none" stroke-linecap="round" stroke-linejoin="round" stroke-miterlimit="4" stroke="#4f91fc" stroke-width="2" stroke-opacity="1"><g><path d="M 34 190L 10 142L 40.5 142L 34 190Z"></path></g></g></g><g id="g-root-cp_2_g-2_1lxeywacu943r-fill" data-item-order="-393097" transform="translate(193.53500366210938, 212)"></g><g id="g-root-cp_2_g-2_1lxeywacu943r-stroke" data-item-order="-393097" transform="translate(193.53500366210938, 212)"><g id="cp_2_g-2_1lxeywacu943r-stroke" fill="none" stroke-linecap="round" stroke-linejoin="round" stroke-miterlimit="4" stroke="#43dd93" stroke-width="2" stroke-opacity="1"><g><path d="M 58.5 10L 178.5 10L 154 190L 34 190L 58.5 10Z"></path></g></g><g id="cp_2_g-2_1lxeywacu943r-stroke" fill="none" stroke-linecap="round" stroke-linejoin="round" stroke-miterlimit="4" stroke="#43dd93" stroke-width="2" stroke-opacity="1"><g><path d="M 173.595581 46L 178.500081 10L 202.000081 46L 173.595581 46Z"></path></g></g><g id="cp_2_g-2_1lxeywacu943r-stroke" fill="none" stroke-linecap="round" stroke-linejoin="round" stroke-miterlimit="4" stroke="#43dd93" stroke-width="2" stroke-opacity="1"><g><path d="M 34 190L 10 142L 40.5 142L 34 190Z"></path></g></g></g><g id="g-root-cp_3_g-3_1hhlgrucu94w0-fill" data-item-order="-393089" transform="translate(349.5039978027344, 212)"></g><g id="g-root-cp_3_g-3_1hhlgrucu94w0-stroke" data-item-order="-393089" transform="translate(349.5039978027344, 212)"><g id="cp_3_g-3_1hhlgrucu94w0-stroke" fill="none" stroke-linecap="round" stroke-linejoin="round" stroke-miterlimit="4" stroke="#a6da37" stroke-width="2" stroke-opacity="1"><g><path d="M 58.5 10L 178.5 10L 154 190L 34 190L 58.5 10Z"></path></g></g><g id="cp_3_g-3_1hhlgrucu94w0-stroke" fill="none" stroke-linecap="round" stroke-linejoin="round" stroke-miterlimit="4" stroke="#a6da37" stroke-width="2" stroke-opacity="1"><g><path d="M 173.595581 46L 178.500081 10L 202.000081 46L 173.595581 46Z"></path></g></g><g id="cp_3_g-3_1hhlgrucu94w0-stroke" fill="none" stroke-linecap="round" stroke-linejoin="round" stroke-miterlimit="4" stroke="#a6da37" stroke-width="2" stroke-opacity="1"><g><path d="M 34 190L 10 142L 40.5 142L 34 190Z"></path></g></g></g><g id="g-root-cp_4_g-4_18mkxm2cu92ix-fill" data-item-order="-393081" transform="translate(505.5159912109375, 212)"></g><g id="g-root-cp_4_g-4_18mkxm2cu92ix-stroke" data-item-order="-393081" transform="translate(505.5159912109375, 212)"><g id="cp_4_g-4_18mkxm2cu92ix-stroke" fill="none" stroke-linecap="round" stroke-linejoin="round" stroke-miterlimit="4" stroke="#1ac3fb" stroke-width="2" stroke-opacity="1"><g><path d="M 58.5 10L 178.5 10L 154 190L 34 190L 58.5 10Z"></path></g></g><g id="cp_4_g-4_18mkxm2cu92ix-stroke" fill="none" stroke-linecap="round" stroke-linejoin="round" stroke-miterlimit="4" stroke="#1ac3fb" stroke-width="2" stroke-opacity="1"><g><path d="M 173.595581 46L 178.500081 10L 202.000081 46L 173.595581 46Z"></path></g></g><g id="cp_4_g-4_18mkxm2cu92ix-stroke" fill="none" stroke-linecap="round" stroke-linejoin="round" stroke-miterlimit="4" stroke="#1ac3fb" stroke-width="2" stroke-opacity="1"><g><path d="M 34 190L 10 142L 40.5 142L 34 190Z"></path></g></g></g><g id="g-root-cp_1_g-1_1_vb4f8qcu943u-fill" data-item-order="-393059" transform="translate(146, 104)"></g><g id="g-root-cp_1_g-1_1_vb4f8qcu943u-stroke" data-item-order="-393059" transform="translate(146, 104)"><g id="cp_1_g-1_1_vb4f8qcu943u-stroke" fill="none" stroke-linecap="round" stroke-linejoin="round" stroke-miterlimit="4" stroke="#f4f4f4" stroke-width="2" stroke-opacity="1"><g><path d="M 10 10L 10 118"></path></g></g></g><g id="g-root-cp_3_g-3_1_vb4f8qcu943v-fill" data-item-order="-393049" transform="translate(458, 104)"></g><g id="g-root-cp_3_g-3_1_vb4f8qcu943v-stroke" data-item-order="-393049" transform="translate(458, 104)"><g id="cp_3_g-3_1_vb4f8qcu943v-stroke" fill="none" stroke-linecap="round" stroke-linejoin="round" stroke-miterlimit="4" stroke="#f4f4f4" stroke-width="2" stroke-opacity="1"><g><path d="M 10 10L 10 118"></path></g></g></g><g id="g-root-cp_2_g-2_1_qvax4acu94w4-fill" data-item-order="-393039" transform="translate(278, 392)"></g><g id="g-root-cp_2_g-2_1_qvax4acu94w4-stroke" data-item-order="-393039" transform="translate(278, 392)"><g id="cp_2_g-2_1_qvax4acu94w4-stroke" fill="none" stroke-linecap="round" stroke-linejoin="round" stroke-miterlimit="4" stroke="#f4f4f4" stroke-width="2" stroke-opacity="1"><g><path d="M 10 10L 10 160"></path></g></g></g><g id="g-root-cp_4_g-4_1_i0adyicu92j1-fill" data-item-order="-393029" transform="translate(590, 392)"></g><g id="g-root-cp_4_g-4_1_i0adyicu92j1-stroke" data-item-order="-393029" transform="translate(590, 392)"><g id="cp_4_g-4_1_i0adyicu92j1-stroke" fill="none" stroke-linecap="round" stroke-linejoin="round" stroke-miterlimit="4" stroke="#f4f4f4" stroke-width="2" stroke-opacity="1"><g><path d="M 10 10L 10 118"></path></g></g></g><g id="g-root-tx_itincide_qqb4fecudafg-fill" data-item-order="0" transform="translate(158, 140)"><g id="tx_itincide_qqb4fecudafg-fill-merged" stroke="none" fill="#f4f4f4" fill-opacity="1"><g><text style="font: 15px Roboto, sans-serif; white-space: pre;" transform="translate(10, 28)" font-size="15px" font-family="Roboto, sans-serif"><tspan x="2" y="0" dominant-baseline="ideographic">IT incident notifications are </tspan><tspan x="2" y="18" dominant-baseline="ideographic">received from Matrix42</tspan></text></g></g></g><g id="g-root-tx_itincide_qqb4fecudafg-stroke" data-item-order="0" transform="translate(158, 140)"></g><g id="g-root-tx_alertsar_8znl0qcud9mu-fill" data-item-order="0" transform="translate(470, 140)"><g id="tx_alertsar_8znl0qcud9mu-fill-merged" stroke="none" fill="#f4f4f4" fill-opacity="1"><g><text style="font: 15px Roboto, sans-serif; white-space: pre;" transform="translate(10, 28)" font-size="15px" font-family="Roboto, sans-serif"><tspan x="2" y="0" dominant-baseline="ideographic">Alerts are generated based </tspan><tspan x="2" y="18" dominant-baseline="ideographic">on predefined rules</tspan></text></g></g></g><g id="g-root-tx_alertsar_8znl0qcud9mu-stroke" data-item-order="0" transform="translate(470, 140)"></g><g id="g-root-tx_alertgen_deum22cudc0d-fill" data-item-order="0" transform="translate(470, 104)"><g id="tx_alertgen_deum22cudc0d-fill-merged" stroke="none" fill="#a6da37" fill-opacity="1"><g><text style="font: 20px Roboto, sans-serif; white-space: pre;" transform="translate(10, 22)" font-size="20px" font-family="Roboto, sans-serif"><tspan x="2" y="12" dominant-baseline="ideographic">Alert Generation</tspan></text></g></g></g><g id="g-root-tx_alertgen_deum22cudc0d-stroke" data-item-order="0" transform="translate(470, 104)"></g><g id="g-root-tx_incident_zly4oacud9mr-fill" data-item-order="0" transform="translate(158, 104)"><g id="tx_incident_zly4oacud9mr-fill-merged" stroke="none" fill="#4f91fc" fill-opacity="1"><g><text style="font: 20px Roboto, sans-serif; white-space: pre;" transform="translate(10, 22)" font-size="20px" font-family="Roboto, sans-serif"><tspan x="2" y="12" dominant-baseline="ideographic">Incident Notification</tspan></text></g></g></g><g id="g-root-tx_incident_zly4oacud9mr-stroke" data-item-order="0" transform="translate(158, 104)"></g><g id="g-root-tx_notifica_1q9hmi2cudbsw-fill" data-item-order="0" transform="translate(78.609375, 488)"><g id="tx_notifica_1q9hmi2cudbsw-fill-merged" stroke="none" fill="#f4f4f4" fill-opacity="1"><g><text style="font: 15px Roboto, sans-serif; white-space: pre;" transform="translate(197.390625, 37)" font-size="15px" font-family="Roboto, sans-serif"><tspan x="-185.39" y="-9" dominant-baseline="ideographic">Notifications are processed </tspan><tspan x="-121.69" y="9" dominant-baseline="ideographic">to extract relevant </tspan><tspan x="-79.5" y="27" dominant-baseline="ideographic">information</tspan></text></g></g></g><g id="g-root-tx_notifica_1q9hmi2cudbsw-stroke" data-item-order="0" transform="translate(78.609375, 488)"></g><g id="g-root-tx_itmonito_dkgvu2cu93ba-fill" data-item-order="0" transform="translate(198.265625, 38)"><g id="tx_itmonito_dkgvu2cu93ba-fill-merged" stroke="none" fill="#f4f4f4" fill-opacity="1"><g><text style="font: bold 25px Roboto, sans-serif; white-space: pre;" transform="translate(215.734375, 25)" font-weight="bold" font-size="25px" font-family="Roboto, sans-serif"><tspan x="-203.73" y="14" dominant-baseline="ideographic">IT Monitoring System Architecture</tspan></text></g></g></g><g id="g-root-tx_itmonito_dkgvu2cu93ba-stroke" data-item-order="0" transform="translate(198.265625, 38)"></g><g id="g-root-ic_cont_90dgqcu94w7-fill" data-item-order="0" transform="translate(98, 261)"></g><g id="g-root-ic_cont_90dgqcu94w7-stroke" data-item-order="0" transform="translate(98, 261)"><g id="ic_cont_90dgqcu94w7-stroke" fill="none" stroke-linecap="round" stroke-linejoin="round" stroke-miterlimit="4" stroke="#4f91fc" stroke-width="2" stroke-opacity="1"><g><path d="M 71.5 50.5L 71.5 77.5C 71.5 79.156853 70.156853 80.5 68.5 80.5L 14.5 80.5C 12.843145 80.5 11.5 79.156853 11.5 77.5L 11.5 44.5C 11.5 42.843143 12.843145 41.5 14.5 41.5L 40 41.5M 23.5 49L 23.5 73M 35.5 49L 35.5 73M 47.5 49L 47.5 73M 59.5 50.5L 59.5 73M 65.5 28L 65.5 20.5M 80.127998 37.063L 68.127998 13.063C 67.602402 12.098897 66.592072 11.498981 65.493996 11.498981C 64.395935 11.498981 63.385601 12.098897 62.860001 13.063L 50.860001 37.063C 50.352222 37.993546 50.373241 39.12299 50.915291 40.034C 51.457336 40.945007 52.43993 41.502319 53.5 41.5L 77.5 41.5C 78.55793 41.498081 79.536644 40.939087 80.075775 40.028839C 80.614906 39.118587 80.63475 37.991669 80.127998 37.063ZM 65.5 33.25C 65.914215 33.25 66.25 33.585785 66.25 34C 66.25 34.414215 65.914215 34.75 65.5 34.75C 65.085785 34.75 64.75 34.414215 64.75 34C 64.75 33.585785 65.085785 33.25 65.5 33.25"></path></g></g></g><g id="g-root-ic_mail_4ju2wacuaiv4-fill" data-item-order="0" transform="translate(253.75201416015625, 261)"></g><g id="g-root-ic_mail_4ju2wacuaiv4-stroke" data-item-order="0" transform="translate(253.75201416015625, 261)"><g id="ic_mail_4ju2wacuaiv4-stroke" fill="none" stroke-linecap="round" stroke-linejoin="round" stroke-miterlimit="4" stroke="#43dd93" stroke-width="2" stroke-opacity="1"><g><path d="M 11.5 17.380001L 28.93 25C 29.703745 25.342733 30.586254 25.342733 31.360001 25L 47.5 17.380001M 65.5 43L 65.5 52M 71.5 80.5L 73 62.5L 80.5 62.5L 80.5 52C 80.5 43.715729 73.784271 37 65.5 37C 57.215729 37 50.5 43.715729 50.5 52L 50.5 62.5L 58 62.5L 59.5 80.5ZM 56.439999 16.66C 59.725121 20.081633 64.266632 22.010963 69.010002 22C 71.411446 22.008234 73.789536 21.528534 76 20.59M 55 22C 55.000004 27.79899 59.701012 32.5 65.5 32.5C 71.298988 32.5 76 27.79899 76 22C 76 16.20101 71.298988 11.500001 65.5 11.500001C 59.701012 11.500001 55.000004 16.20101 55.000004 22M 14.5 11.5L 44.5 11.5C 44.5 11.5 47.5 11.5 47.5 14.5L 47.5 32.5C 47.5 32.5 47.5 35.5 44.5 35.5L 14.5 35.5C 14.5 35.5 11.5 35.5 11.5 32.5L 11.5 14.5C 11.5 14.5 11.5 11.5 14.5 11.5"></path></g></g></g><g id="g-root-ic_1_1uuaxbecuaivf-fill" data-item-order="0" transform="translate(410, 261)"></g><g id="g-root-ic_1_1uuaxbecuaivf-stroke" data-item-order="0" transform="translate(410, 261)"><g id="ic_1_1uuaxbecuaivf-stroke" fill="none" stroke-linecap="round" stroke-linejoin="round" stroke-miterlimit="4" stroke="#a6da37" stroke-width="2" stroke-opacity="1"><g><path d="M 38.800003 33.172001C 33.38369 31.654137 27.569078 32.762276 23.090687 36.165852C 18.612297 39.569431 15.987764 44.875042 16 50.500004L 16 67C 16 69.485283 13.985282 71.5 11.5 71.5L 56.5 71.5C 54.014721 71.5 52 69.485283 52 67L 52 51.057999M 38.244999 77.5C 37.610043 79.299217 35.909473 80.502441 34.001503 80.502441C 32.093529 80.502441 30.39296 79.299217 29.757999 77.5M 34 26.503L 34 32.502998M 38.800003 33.172001C 33.38369 31.654137 27.569078 32.762276 23.090687 36.165852C 18.612297 39.569431 15.987764 44.875042 16 50.500004L 16 67C 16 69.485283 13.985282 71.5 11.5 71.5L 56.5 71.5C 54.014721 71.5 52 69.485283 52 67L 52 51.057999M 38.244999 77.5C 37.610043 79.299217 35.909473 80.502441 34.001503 80.502441C 32.093529 80.502441 30.39296 79.299217 29.757999 77.5M 34 26.503L 34 32.502998M 44.5 29.506001C 44.500004 39.447128 52.558876 47.506001 62.5 47.506001C 72.441132 47.506001 80.5 39.447128 80.5 29.506001C 80.5 19.564875 72.441132 11.506001 62.5 11.506001C 52.558876 11.506001 44.500004 19.564875 44.500004 29.506001ZM 70.522003 24.274L 61.806999 35.892998C 61.414772 36.414024 60.816269 36.739822 60.165783 36.786407C 59.515297 36.832996 58.876469 36.59581 58.414001 36.136002L 53.913998 31.636"></path></g></g></g><g id="g-root-ic_sale_djueqycuby13-fill" data-item-order="0" transform="translate(566, 261)"></g><g id="g-root-ic_sale_djueqycuby13-stroke" data-item-order="0" transform="translate(566, 261)"><g id="ic_sale_djueqycuby13-stroke" fill="none" stroke-linecap="round" stroke-linejoin="round" stroke-miterlimit="4" stroke="#1ac3fb" stroke-width="2" stroke-opacity="1"><g><path d="M 60.895 23.419001L 60.895 30.919001M 60.168999 37.063C 60.168999 37.477211 60.504784 37.813 60.918999 37.813C 61.333214 37.813 61.668999 37.477211 61.668999 37.063C 61.668999 36.648788 61.333214 36.313 60.918999 36.313C 60.504784 36.313 60.168999 36.648788 60.168999 37.063M 66.247002 18.598L 74.826996 17.518L 73.552002 26.070999L 80.379997 31.372L 73.431999 36.516998L 74.512001 45.097L 65.959 43.819L 60.657997 50.650002L 55.513 43.698997L 46.932999 44.778999L 48.208 36.229L 41.380001 30.924999L 48.327999 25.780001L 47.248001 17.202999L 55.801003 18.478001L 61.102001 11.65L 66.247002 18.598ZM 11.62 59.350002L 74.620003 59.350002M 74.620003 50.349998L 74.620003 65.350006C 74.620003 67.006851 73.276855 68.350006 71.620003 68.350006L 14.62 68.350006C 12.963146 68.350006 11.62 67.006851 11.62 65.350006L 11.62 26.349998C 11.62 24.693146 12.963146 23.349998 14.62 23.349998L 38.619999 23.349998M 34.119999 80.350006C 36.837463 76.918716 38.411217 72.722038 38.619999 68.350006M 52.119999 80.350006C 49.402534 76.918716 47.828781 72.722038 47.619999 68.350006M 29.619999 80.350006L 56.619999 80.350006"></path></g></g></g><g id="g-root-tx_notifica_1upb4micudb0n-fill" data-item-order="0" transform="translate(158.625, 428)"><g id="tx_notifica_1upb4micudb0n-fill-merged" stroke="none" fill="#43dd93" fill-opacity="1"><g><text style="font: 20px Roboto, sans-serif; white-space: pre;" transform="translate(117.375, 34)" font-size="20px" font-family="Roboto, sans-serif"><tspan x="-105.38" y="0" dominant-baseline="ideographic">Notification </tspan><tspan x="-101.47" y="24" dominant-baseline="ideographic">Processing</tspan></text></g></g></g><g id="g-root-tx_notifica_1upb4micudb0n-stroke" data-item-order="0" transform="translate(158.625, 428)"></g><g id="g-root-tx_visualno_1hdum96cudcll-fill" data-item-order="0" transform="translate(410.96875, 428)"><g id="tx_visualno_1hdum96cudcll-fill-merged" stroke="none" fill="#1ac3fb" fill-opacity="1"><g><text style="font: 20px Roboto, sans-serif; white-space: pre;" transform="translate(177.03125, 22)" font-size="20px" font-family="Roboto, sans-serif"><tspan x="-165.03" y="12" dominant-baseline="ideographic">Visual Notification</tspan></text></g></g></g><g id="g-root-tx_visualno_1hdum96cudcll-stroke" data-item-order="0" transform="translate(410.96875, 428)"></g><g id="g-root-tx_alertsar_1cynl7ucuda82-fill" data-item-order="0" transform="translate(409.671875, 464)"><g id="tx_alertsar_1cynl7ucuda82-fill-merged" stroke="none" fill="#f4f4f4" fill-opacity="1"><g><text style="font: 15px Roboto, sans-serif; white-space: pre;" transform="translate(178.328125, 28)" font-size="15px" font-family="Roboto, sans-serif"><tspan x="-165.81" y="0" dominant-baseline="ideographic">Alerts are displayed on a </tspan><tspan x="-166.33" y="18" dominant-baseline="ideographic">visual notification device</tspan></text></g></g></g><g id="g-root-tx_alertsar_1cynl7ucuda82-stroke" data-item-order="0" transform="translate(409.671875, 464)"></g></g></g><path id="wzlx92yamm7er" d="M65.283 12.757a.35.35 0 0 0 .584.157l5.203-5.141-6.183 3.523.396 1.461zm-2.216-11.7a.35.35 0 0 0-.522.305v3.111l3.276-1.868-2.754-1.548zm3.728 2.105l-4.25 2.421v2.445l6.391-3.644-2.141-1.222zm4.708 3.303a.35.35 0 0 0 0-.609l-1.592-.9-7.365 4.199v1.782a.35.35 0 0 0 .523.305l8.435-4.777z M44.542 2.513c0-.433.355-.783.792-.783s.792.35.792.783-.355.783-.792.783-.792-.35-.792-.783zm59.171 0c0-.433.355-.783.792-.783s.792.35.792.783-.355.783-.792.783-.792-.35-.792-.783zm-85.951 7.636h-1.27v-.487c-.276.201-.864.609-1.881.609-1.202 0-2.274-.794-2.137-2.078.118-1.106 1.153-1.584 1.848-1.727l2.17-.345c0-.539-.29-.956-1.064-1.006s-1.21.305-1.571 1.017l-1.124-.605c1.218-2.631 5.029-1.764 5.029.414v4.207zm-1.27-2.86c.006.396-.062 1.112-.819 1.59-.587.37-1.841.299-1.903-.395-.049-.555.461-.791.906-.898l1.816-.297zm72.662 2.86h-1.27v-.487c-.276.201-.864.609-1.881.609-1.202 0-2.274-.794-2.137-2.078.118-1.106 1.153-1.584 1.848-1.727l2.17-.345c0-.539-.29-.956-1.064-1.006s-1.21.305-1.571 1.017l-1.124-.605c1.218-2.631 5.029-1.764 5.029.414v4.207zm-1.27-2.86c.006.396-.062 1.112-.82 1.59-.587.37-1.841.299-1.903-.395-.049-.555.461-.791.906-.898l1.816-.297zM99.096 10.149H97.85v-8.45h1.246v4.895l2.68-2.559h1.738l-2.633 2.535 2.715 3.578h-1.556l-2.077-2.707-.867.844v1.863zm6.053-6.114h-1.255v6.113h1.255V4.035zm-59.2 0h-1.255v6.113h1.255V4.035zm5.584 6.113V1.697h1.255v2.695c.361-.346 1-.485 1.47-.485 1.452 0 2.477 1.082 2.457 2.448v3.792h-1.27v-3.68c0-.408-.214-1.339-1.315-1.339-.968 0-1.342.756-1.342 1.339v3.681h-1.255zm-4.76-4.894V4.039h.621a.45.45 0 0 0 .45-.45v-.855h1.251v1.305h1.309v1.215h-1.309v3.109c0 .293.105.664.648.664.365 0 .531-.035.736-.07v1.137s-.361.113-.857.113c-1.398 0-1.777-1.051-1.777-1.788V5.254h-1.071zM36.528 4.039h-1.394l2.191 6.106h1.125l1.234-3.918 1.238 3.918h1.129l2.188-6.106h-1.383l-1.359 3.93-1.256-3.93h-1.124l-1.242 3.957-1.348-3.957zM26.212 7.141c-.02 1.566 1.187 3.129 3.223 3.129 1.566 0 2.383-.918 2.734-1.719L31.172 8c-.315.399-.801 1.094-1.738 1.094-1.145 0-1.825-.781-1.891-1.52h4.625c.074-.284.148-.995-.03-1.559-.336-1.064-1.221-2.102-2.839-2.102s-3.088 1.152-3.088 3.227zm1.363-.75h3.348c-.055-.43-.566-1.301-1.623-1.301a1.79 1.79 0 0 0-1.725 1.301zm-8.758.75c.038 1.758 1.277 3.133 3.145 3.133 1.074 0 1.723-.477 1.961-.672v.547h1.242V1.703h-1.258v2.888c-.414-.36-1.062-.68-1.93-.68-1.91 0-3.198 1.473-3.16 3.23zm1.309-.08c0 1.119.723 1.978 1.836 1.978a1.88 1.88 0 0 0 1.94-1.904c0-1.371-1.011-1.99-1.972-1.99s-1.805.798-1.805 1.916zm76.683-.028C96.771 5.275 95.532 3.9 93.664 3.9c-1.074 0-1.723.477-1.961.672v-.547h-1.242v8.22h1.258V9.583c.414.36 1.063.68 1.93.68 1.91 0 3.198-1.473 3.16-3.23zm-1.309.08c0-1.119-.723-1.978-1.836-1.978a1.88 1.88 0 0 0-1.94 1.904c0 1.371 1.011 1.99 1.972 1.99S95.5 8.231 95.5 7.113zM106.441 10.173V4.036h1.254v.382c.361-.346 1-.485 1.47-.485 1.452 0 2.477 1.082 2.457 2.448v3.792h-1.27V6.492c0-.408-.214-1.339-1.315-1.339-.969 0-1.342.756-1.342 1.339v3.681h-1.254zm-30.383-.021V1.824h1.084l4.215 5.777V1.824h1.32v8.328h-1.094l-4.207-5.796v5.796h-1.319zM5.24 10.149H4V2.377h1.014l2.664 3.597 2.654-3.592h1.03v7.766h-1.256V4.762L7.678 8.068 5.24 4.742v5.407z" transform="translate(692, 578)" fill="#ababab88" stroke="none"></path></svg>